<mxfile host="65bd71144e">
    <diagram id="KzpBBrhVbBApxb2hN71k" name="Page-1">
        <mxGraphModel dx="846" dy="313" grid="0" gridSize="10" guides="1" tooltips="1" connect="1" arrows="1" fold="1" page="1" pageScale="1" pageWidth="827" pageHeight="1169" math="0" shadow="0">
            <root>
                <mxCell id="0"/>
                <mxCell id="1" parent="0"/>
                <mxCell id="2" value="&lt;span style=&quot;color: rgb(63, 63, 63); font-size: 72px;&quot;&gt;*&lt;/span&gt;&lt;span style=&quot;color: rgb(63, 63, 63); font-size: 72px;&quot;&gt;&amp;nbsp;&lt;/span&gt;" style="text;html=1;align=center;verticalAlign=middle;resizable=0;points=[];autosize=1;strokeColor=none;fillColor=none;" vertex="1" parent="1">
                    <mxGeometry x="73" y="123" width="66" height="98" as="geometry"/>
                </mxCell>
                <mxCell id="3" value="&lt;span style=&quot;color: rgb(63, 63, 63); font-size: 72px;&quot;&gt;*&lt;/span&gt;&lt;span style=&quot;color: rgb(63, 63, 63); font-size: 72px;&quot;&gt;&amp;nbsp;*&lt;/span&gt;" style="text;html=1;align=center;verticalAlign=middle;resizable=0;points=[];autosize=1;strokeColor=none;fillColor=none;" vertex="1" parent="1">
                    <mxGeometry x="75" y="157" width="94" height="98" as="geometry"/>
                </mxCell>
                <mxCell id="4" value="&lt;span style=&quot;color: rgb(63, 63, 63); font-size: 72px;&quot;&gt;*&lt;/span&gt;&lt;span style=&quot;color: rgb(63, 63, 63); font-size: 72px;&quot;&gt;&amp;nbsp;*&lt;/span&gt;&lt;span style=&quot;color: rgb(63, 63, 63); font-size: 72px;&quot;&gt;&amp;nbsp;*&lt;/span&gt;" style="text;html=1;align=center;verticalAlign=middle;resizable=0;points=[];autosize=1;strokeColor=none;fillColor=none;" vertex="1" parent="1">
                    <mxGeometry x="75" y="187" width="142" height="98" as="geometry"/>
                </mxCell>
                <mxCell id="5" value="&lt;span style=&quot;color: rgb(63, 63, 63); font-size: 72px;&quot;&gt;*&lt;/span&gt;&lt;span style=&quot;color: rgb(63, 63, 63); font-size: 72px;&quot;&gt;&amp;nbsp;*&lt;/span&gt;&lt;span style=&quot;color: rgb(63, 63, 63); font-size: 72px;&quot;&gt;&amp;nbsp;*&lt;/span&gt;&lt;span style=&quot;color: rgb(63, 63, 63); font-size: 72px;&quot;&gt;&amp;nbsp;*&lt;/span&gt;" style="text;html=1;align=center;verticalAlign=middle;resizable=0;points=[];autosize=1;strokeColor=none;fillColor=none;" vertex="1" parent="1">
                    <mxGeometry x="71" y="216" width="190" height="98" as="geometry"/>
                </mxCell>
                <mxCell id="6" value="&lt;span style=&quot;color: rgb(63, 63, 63); font-size: 72px;&quot;&gt;*&lt;/span&gt;&lt;span style=&quot;color: rgb(63, 63, 63); font-size: 72px;&quot;&gt;&amp;nbsp;*&lt;/span&gt;&lt;span style=&quot;color: rgb(63, 63, 63); font-size: 72px;&quot;&gt;&amp;nbsp;*&lt;/span&gt;&lt;span style=&quot;color: rgb(63, 63, 63); font-size: 72px;&quot;&gt;&amp;nbsp;*&lt;/span&gt;&lt;span style=&quot;color: rgb(63, 63, 63); font-size: 72px;&quot;&gt;&amp;nbsp;*&lt;/span&gt;" style="text;html=1;align=center;verticalAlign=middle;resizable=0;points=[];autosize=1;strokeColor=none;fillColor=none;" vertex="1" parent="1">
                    <mxGeometry x="69" y="246" width="238" height="98" as="geometry"/>
                </mxCell>
                <mxCell id="7" value="&lt;font style=&quot;font-size: 72px;&quot;&gt;i=1&lt;/font&gt;" style="text;html=1;align=center;verticalAlign=middle;resizable=0;points=[];autosize=1;strokeColor=none;fillColor=none;" vertex="1" parent="1">
                    <mxGeometry x="474" y="79" width="116" height="98" as="geometry"/>
                </mxCell>
                <mxCell id="8" value="&lt;font style=&quot;font-size: 72px;&quot;&gt;j=1&lt;/font&gt;" style="text;html=1;align=center;verticalAlign=middle;resizable=0;points=[];autosize=1;strokeColor=none;fillColor=none;" vertex="1" parent="1">
                    <mxGeometry x="481" y="177" width="116" height="98" as="geometry"/>
                </mxCell>
            </root>
        </mxGraphModel>
    </diagram>
</mxfile>